<?xml version="1.0" standalone="no"?>
<!DOCTYPE svg PUBLIC "-//W3C//DTD SVG 20010904//EN"
 "http://www.w3.org/TR/2001/REC-SVG-20010904/DTD/svg10.dtd">
<svg version="1.0" xmlns="http://www.w3.org/2000/svg"
 width="300.000000pt" height="300.000000pt" viewBox="0 0 300.000000 300.000000"
 preserveAspectRatio="xMidYMid meet">
<metadata>
Created by potrace 1.10, written by Peter Selinger 2001-2011
</metadata>
<g transform="translate(0.000000,300.000000) scale(0.100000,-0.100000)"
fill="#000000" stroke="none">
<path d="M228 2580 c-13 -10 -70 -87 -126 -172 l-102 -154 0 -276 0 -276 95
-280 c52 -154 95 -282 95 -286 0 -3 -34 -6 -75 -6 -114 0 -115 -2 -115 -200 0
-210 -9 -200 179 -200 l139 0 4 -67 c2 -38 12 -85 23 -107 43 -89 137 -149
235 -150 70 0 119 17 176 60 l45 35 36 -32 c53 -46 99 -62 173 -62 81 0 151
33 204 95 121 141 58 364 -120 425 -91 31 -217 1 -278 -66 l-19 -21 -30 30
c-43 42 -94 63 -164 68 -74 5 -119 -9 -179 -54 l-44 -34 -130 0 -130 0 0 80 0
80 915 0 915 0 0 -80 0 -80 -135 0 c-122 0 -137 -2 -155 -20 -25 -25 -25 -55
0 -80 19 -19 33 -20 254 -20 l234 0 0 -60 c0 -197 207 -324 385 -236 94 45
147 134 147 242 l0 54 140 0 c127 0 142 2 160 20 19 19 20 33 19 462 l0 443
-152 225 -152 225 -315 5 -315 5 -5 35 c-7 38 -94 177 -123 194 -13 8 -24 7
-45 -4 -42 -24 -39 -56 13 -140 l45 -74 0 -98 0 -98 -40 0 c-27 0 -47 -7 -60
-20 -18 -18 -20 -33 -20 -156 l0 -135 -25 3 c-23 3 -33 22 -99 186 -41 101
-92 213 -114 250 -116 194 -313 346 -533 412 -36 11 -220 42 -410 70 -189 27
-356 52 -371 54 -17 3 -35 -2 -50 -14z m404 -156 c316 -46 440 -71 439 -89 0
-7 -445 -694 -504 -779 -8 -12 -83 65 -93 97 -4 12 21 60 75 143 45 69 81 133
81 143 0 28 -34 53 -67 49 -27 -3 -46 -26 -156 -191 -11 -16 -28 9 -142 204
-72 123 -130 228 -130 234 0 24 150 234 167 235 10 0 159 -20 330 -46z m634
-180 c14 -10 21 -20 17 -25 -8 -7 -156 -40 -160 -35 -1 1 14 26 33 55 39 58
27 58 110 5z m-47 -246 c-34 -51 -63 -94 -64 -96 -3 -3 -231 -52 -245 -52 -5
0 12 33 38 73 84 128 69 117 189 142 158 33 152 38 82 -67z m255 24 c25 -37
74 -140 111 -229 l66 -161 -114 -168 -115 -169 -208 1 c-148 1 -222 5 -252 15
l-44 14 148 225 c81 124 193 296 250 383 57 86 106 157 109 157 3 0 25 -31 49
-68z m-1181 -299 c94 -158 97 -165 156 -366 34 -113 61 -210 61 -216 0 -8 -29
-11 -96 -9 l-97 3 -98 288 -99 289 0 151 0 152 39 -65 c21 -36 81 -138 134
-227z m1977 24 c0 -229 2 -255 18 -269 13 -12 563 -188 587 -188 3 0 5 -54 5
-120 l0 -120 -79 0 c-74 0 -81 -2 -100 -26 -17 -22 -21 -41 -21 -100 l0 -74
-33 0 c-22 0 -41 8 -53 21 -34 39 -113 69 -179 69 -66 0 -145 -30 -179 -69
-16 -18 -30 -21 -98 -21 l-78 0 0 80 0 80 40 0 c27 0 47 7 60 20 19 19 20 33
20 440 0 407 -1 421 -20 440 -13 13 -33 20 -60 20 -37 0 -40 2 -40 28 0 16 3
32 7 35 3 4 51 7 105 7 l98 0 0 -253z m483 63 l127 -190 0 -105 c0 -58 -1
-105 -2 -105 -2 0 -111 33 -243 74 l-240 73 -3 222 -2 221 118 0 119 0 126
-190z m-693 -340 l0 -340 -55 0 -55 0 0 340 0 340 55 0 55 0 0 -340z m-1006
278 c-4 -7 -29 -45 -55 -84 l-48 -71 -116 -23 c-63 -12 -118 -20 -121 -17 -3
3 17 39 44 80 l51 74 108 22 c59 12 113 24 118 26 20 7 26 5 19 -7z m776 -433
l0 -185 -185 0 c-102 0 -185 3 -185 6 0 3 55 86 122 185 l121 179 64 0 63 0 0
-185z m-996 95 c-15 -22 -28 -40 -30 -40 -10 0 -94 45 -94 51 0 6 86 25 128
28 l22 1 -26 -40z m-39 -166 c117 -48 209 -65 387 -71 150 -6 156 -7 145 -25
-11 -17 -29 -18 -351 -16 l-339 3 -33 115 c-19 63 -34 116 -34 117 0 2 32 -18
72 -44 39 -25 108 -61 153 -79z m2085 -354 c0 -40 0 -40 -40 -40 -40 0 -40 0
-40 40 0 40 0 40 40 40 40 0 40 0 40 -40z m-2202 -97 c115 -86 53 -268 -91
-268 -180 0 -207 257 -32 295 38 8 92 -4 123 -27z m406 8 c103 -58 98 -209 -9
-261 -52 -25 -86 -25 -136 0 -59 30 -81 72 -76 143 3 51 8 62 39 93 53 54 116
62 182 25z m1420 -6 c53 -35 75 -111 50 -174 -44 -109 -176 -134 -253 -46 -41
47 -49 95 -25 153 39 93 142 123 228 67z"/>
<path d="M647 2152 c-35 -38 -8 -92 45 -92 31 0 51 21 51 55 0 14 -6 32 -13
40 -17 21 -63 19 -83 -3z"/>
<path d="M2292 1384 c-18 -12 -22 -25 -22 -69 0 -47 3 -57 25 -71 72 -47 133
91 62 141 -27 19 -37 19 -65 -1z"/>
<path d="M1427 832 c-26 -28 -21 -69 9 -89 24 -15 29 -15 53 -2 16 9 27 25 29
43 7 55 -56 87 -91 48z"/>
</g>
</svg>
