<?xml version="1.0" standalone="no"?>
<!DOCTYPE svg PUBLIC "-//W3C//DTD SVG 20010904//EN"
 "http://www.w3.org/TR/2001/REC-SVG-20010904/DTD/svg10.dtd">
<svg version="1.0" xmlns="http://www.w3.org/2000/svg"
 width="1024.000000pt" height="1024.000000pt" viewBox="0 0 1024.000000 1024.000000"
 preserveAspectRatio="xMidYMid meet">
<metadata>
Created by potrace 1.11, written by Peter Selinger 2001-2013
</metadata>
<g transform="translate(0.000000,1024.000000) scale(0.100000,-0.100000)"
fill="#000000" stroke="none">
<path d="M5728 10234 c-2 -2 -87 -6 -189 -8 -101 -3 -247 -8 -324 -11 -77 -2
-212 -7 -300 -10 -88 -4 -214 -8 -280 -10 -257 -8 -514 -17 -595 -20 -269 -12
-359 -16 -395 -20 -22 -2 -87 -6 -144 -10 -57 -3 -127 -8 -155 -11 -28 -2 -85
-6 -126 -9 -41 -2 -75 -5 -75 -5 0 -2 -24 -5 -85 -15 -124 -18 -216 -52 -405
-147 -88 -45 -187 -95 -220 -111 -33 -17 -62 -33 -65 -36 -3 -3 -10 -7 -16 -8
-44 -8 -196 -121 -259 -192 -16 -19 -38 -43 -49 -55 -28 -31 -106 -153 -106
-165 0 -6 -4 -11 -10 -11 -5 0 -9 -3 -8 -7 2 -10 -15 -50 -52 -127 -17 -33
-30 -64 -30 -67 0 -4 -8 -24 -17 -45 -9 -22 -17 -41 -18 -44 -1 -3 -4 -12 -8
-20 -3 -8 -33 -91 -68 -185 -34 -93 -99 -262 -145 -375 -75 -186 -97 -239
-154 -365 -10 -22 -30 -69 -45 -105 -15 -36 -40 -94 -57 -130 -16 -36 -33 -75
-39 -87 -5 -13 -13 -33 -18 -45 -6 -13 -19 -43 -29 -68 -11 -25 -32 -76 -47
-115 -14 -38 -30 -79 -35 -90 -11 -27 -42 -146 -42 -165 0 -8 -6 -36 -14 -61
-45 -143 -36 -440 17 -584 30 -81 76 -185 101 -228 15 -26 28 -50 28 -52 0 -7
141 -257 162 -287 11 -16 16 -28 12 -28 -4 0 0 -8 8 -17 9 -10 26 -38 38 -63
13 -25 26 -47 29 -50 4 -3 13 -20 20 -37 8 -18 17 -33 22 -33 5 0 9 -9 9 -19
0 -11 4 -21 9 -23 5 -1 17 -20 27 -41 55 -110 159 -306 176 -329 11 -16 17
-28 13 -28 -3 0 6 -17 20 -37 14 -21 25 -41 25 -44 0 -4 29 -59 65 -123 36
-64 65 -118 65 -120 0 -2 17 -35 38 -73 22 -37 58 -104 82 -148 24 -44 51 -93
60 -110 9 -16 39 -70 65 -120 27 -49 57 -103 66 -120 10 -16 26 -46 36 -65 9
-19 19 -37 22 -40 6 -5 68 -122 126 -235 16 -33 32 -62 35 -65 3 -3 22 -39 44
-80 21 -41 54 -103 72 -137 19 -35 31 -63 28 -63 -4 0 -1 -7 6 -15 15 -18 150
-285 150 -297 0 -5 5 -14 10 -21 6 -7 66 -122 134 -257 68 -135 140 -274 160
-310 20 -36 45 -84 57 -108 11 -23 24 -42 29 -42 6 0 10 -6 10 -14 0 -15 58
-116 73 -127 5 -3 8 -9 7 -13 -1 -7 113 -198 195 -326 109 -171 141 -221 150
-238 26 -46 110 -179 123 -194 8 -10 11 -18 7 -18 -4 0 -1 -8 7 -17 8 -10 38
-58 67 -108 28 -49 56 -97 61 -105 9 -16 31 -57 124 -235 32 -60 63 -116 68
-122 6 -7 7 -13 3 -13 -4 0 -2 -6 4 -13 10 -13 56 -100 170 -322 31 -60 60
-113 66 -117 5 -4 6 -8 1 -8 -5 0 -4 -6 2 -12 5 -7 43 -76 83 -153 83 -160
105 -197 174 -297 45 -66 177 -207 232 -250 23 -18 164 -97 173 -97 3 0 22 -7
44 -16 l38 -16 53 56 c41 43 123 172 131 205 9 42 139 298 167 330 57 65 66
79 120 173 52 91 97 191 97 215 0 6 5 12 10 12 6 0 9 3 8 8 -2 4 4 23 11 42
25 61 112 263 139 320 76 163 128 265 135 268 4 2 5 8 1 13 -3 5 0 9 5 9 6 0
11 5 11 10 0 10 108 201 178 315 17 28 41 69 53 92 12 24 26 43 31 43 4 0 8 4
8 9 0 9 69 131 80 141 3 3 14 22 25 43 11 20 23 37 27 37 5 0 8 4 8 10 0 8 32
62 70 120 11 16 54 84 105 165 17 28 72 112 121 187 49 76 94 146 99 155 6 10
82 126 169 258 88 132 184 278 214 325 31 47 58 87 61 90 4 3 31 43 61 90 30
47 57 87 60 90 3 3 48 70 100 150 52 80 103 154 113 164 9 11 17 25 17 32 0 7
3 14 8 16 9 4 52 65 52 73 0 4 6 13 14 20 23 23 346 512 346 524 0 6 4 11 8
11 5 0 33 39 62 88 29 48 57 88 62 90 4 2 8 8 8 13 0 12 226 354 420 634 83
121 164 238 178 260 15 22 29 42 32 45 3 3 30 43 60 90 30 47 57 87 60 90 23
20 72 130 75 170 1 8 4 22 8 30 7 19 31 95 29 95 -1 0 10 38 24 85 14 47 32
108 39 135 7 28 30 106 50 175 20 69 38 132 40 140 2 8 17 61 33 117 27 90 30
118 31 245 1 78 -3 168 -9 198 -6 30 -13 66 -15 80 -2 14 -6 39 -8 55 -17 97
-20 122 -23 145 -1 14 -5 43 -9 65 -3 22 -8 51 -11 65 -2 14 -6 36 -9 50 -3
14 -7 39 -10 55 -8 62 -17 110 -20 115 -2 3 -6 26 -10 50 -3 25 -9 54 -12 65
-3 11 -7 29 -8 40 -2 11 -8 38 -13 60 -6 22 -13 51 -16 65 -8 39 -13 58 -41
160 -14 52 -27 102 -29 110 -2 16 -23 84 -33 110 -3 8 -7 20 -8 26 -2 5 -30
95 -63 200 -33 104 -68 216 -77 249 -10 33 -24 81 -31 106 -8 25 -17 57 -20
70 -11 47 -23 95 -40 164 l-18 70 -245 247 -246 247 -110 5 c-162 8 -370 16
-537 20 -80 2 -151 7 -157 10 -5 4 -12 2 -16 -4 -4 -6 -11 -7 -17 -4 -5 4 -74
8 -151 10 -203 6 -1435 13 -1439 8z m1512 -708 c80 -4 174 -9 210 -11 109 -7
350 -17 440 -19 48 -1 85 -6 86 -11 0 -6 4 -21 7 -35 4 -14 9 -34 11 -45 4
-27 15 -68 38 -149 11 -38 21 -76 23 -85 2 -9 20 -61 39 -116 20 -55 38 -108
40 -117 3 -9 17 -54 32 -100 16 -46 29 -85 30 -88 0 -3 3 -12 7 -20 3 -8 20
-60 37 -115 17 -55 34 -107 37 -115 8 -19 42 -138 48 -166 3 -12 11 -40 19
-63 9 -22 13 -41 11 -41 -3 0 -1 -10 4 -23 5 -13 12 -40 15 -61 3 -21 13 -70
21 -109 8 -40 17 -88 20 -107 3 -19 8 -46 10 -60 11 -52 15 -78 31 -170 8 -52
17 -106 20 -120 2 -14 6 -35 8 -46 2 -12 7 -39 10 -60 11 -70 18 -119 22 -139
3 -11 7 -36 10 -55 3 -19 7 -46 10 -60 2 -14 7 -41 10 -60 3 -19 7 -46 10 -60
8 -42 12 -63 18 -116 4 -28 8 -60 10 -71 3 -14 -6 -31 -24 -50 -16 -15 -30
-31 -30 -35 0 -7 -33 -53 -96 -133 -90 -116 -281 -381 -305 -424 -8 -16 -23
-36 -32 -46 -9 -9 -17 -23 -17 -31 0 -8 -3 -14 -8 -14 -4 0 -16 -17 -27 -37
-11 -20 -25 -41 -30 -47 -6 -6 -26 -36 -45 -66 -19 -30 -37 -57 -40 -60 -6 -5
-240 -357 -393 -592 -43 -64 -77 -121 -77 -127 0 -5 -3 -11 -7 -13 -12 -5 -53
-66 -53 -78 0 -5 -3 -10 -8 -10 -4 0 -12 -9 -17 -20 -12 -24 -64 -107 -162
-257 -40 -62 -73 -117 -73 -122 0 -5 -3 -11 -7 -13 -10 -4 -265 -386 -275
-410 -4 -10 -12 -18 -18 -18 -5 0 -10 -4 -10 -9 0 -6 -31 -57 -70 -115 -38
-57 -70 -109 -70 -115 0 -6 -4 -11 -8 -11 -4 0 -24 -27 -43 -60 -18 -33 -37
-60 -41 -60 -5 0 -8 -4 -8 -10 0 -9 -39 -72 -60 -97 -5 -7 -10 -14 -10 -17 0
-3 -45 -75 -100 -161 -55 -86 -100 -160 -100 -165 0 -4 -3 -10 -7 -12 -5 -1
-20 -21 -34 -43 -14 -22 -43 -67 -65 -100 -21 -33 -43 -68 -49 -77 -43 -72
-140 -224 -145 -228 -10 -9 -177 -282 -205 -337 -9 -18 -23 -37 -31 -44 -8 -6
-14 -15 -14 -18 0 -4 -43 -79 -95 -166 -52 -87 -95 -159 -95 -161 0 -1 -19
-35 -43 -76 -24 -40 -47 -80 -51 -88 -4 -8 -12 -24 -19 -35 -64 -106 -237
-444 -237 -464 0 -6 -4 -11 -10 -11 -5 0 -10 -5 -10 -11 0 -6 -7 -27 -16 -47
-74 -168 -84 -192 -84 -196 0 -3 -5 -17 -11 -33 -6 -15 -11 -30 -11 -33 -1 -3
-14 -36 -31 -75 -35 -84 -97 -271 -97 -293 0 -27 -15 -3 -80 123 -87 167 -168
323 -322 615 -25 47 -56 105 -70 130 -14 25 -36 65 -50 90 -14 25 -34 61 -45
80 -11 19 -31 56 -46 82 -14 25 -37 64 -51 87 -14 22 -26 45 -26 51 0 5 -4 10
-9 10 -5 0 -11 8 -14 18 -6 17 -38 73 -47 82 -3 3 -21 30 -40 60 -19 30 -74
115 -122 188 -48 73 -88 137 -88 142 0 6 -4 10 -9 10 -5 0 -11 8 -15 18 -3 9
-33 60 -66 112 -33 52 -66 106 -73 120 -6 14 -14 27 -17 30 -5 5 -109 183
-158 271 -41 73 -47 84 -61 101 -8 10 -11 18 -6 18 4 0 3 6 -3 12 -14 18 -47
78 -152 283 -51 99 -110 212 -130 250 -21 39 -58 111 -84 160 -26 50 -51 97
-56 105 -5 8 -45 83 -90 165 -44 83 -85 157 -90 165 -25 40 -70 124 -70 132 0
4 -4 8 -10 8 -5 0 -10 4 -10 9 0 6 -17 38 -37 73 -21 35 -46 77 -55 93 -10 17
-26 47 -35 68 -10 20 -21 37 -25 37 -5 0 -8 6 -8 14 0 7 -7 19 -15 26 -8 7
-12 16 -9 21 3 5 1 9 -4 9 -5 0 -12 8 -16 18 -3 9 -24 49 -46 87 -22 39 -52
95 -67 125 -16 30 -31 57 -34 60 -3 3 -15 25 -28 50 -29 59 -108 205 -132 244
-11 17 -25 45 -33 61 -8 17 -47 86 -87 155 -39 69 -85 150 -102 180 -16 30
-35 62 -42 70 -7 8 -19 29 -27 45 -18 38 -40 76 -54 95 -6 8 -24 38 -39 65
-15 28 -57 101 -94 163 -36 61 -75 129 -87 150 -11 20 -36 64 -54 97 -40 73
-120 192 -150 223 l-22 23 49 55 c26 31 53 63 58 72 6 10 12 19 15 22 14 14
50 70 50 79 0 5 3 11 8 13 9 4 62 113 97 198 14 36 30 74 35 85 5 11 16 37 24
58 9 20 22 52 30 70 8 17 24 57 36 87 11 30 30 74 40 97 11 24 20 49 20 56 0
7 4 17 8 23 5 5 28 61 52 124 23 63 51 133 60 155 10 22 28 69 41 105 12 36
26 70 31 76 5 7 10 20 12 30 3 16 60 171 109 299 7 17 12 32 13 35 0 3 4 12 7
20 18 42 70 187 72 200 1 8 7 28 14 43 15 38 40 151 46 207 8 80 34 240 41
251 3 6 49 12 224 34 14 2 50 6 80 10 95 13 112 14 255 20 210 8 376 16 415
20 33 3 228 13 425 20 101 4 399 14 640 20 88 3 241 7 340 10 99 3 274 8 390
11 115 3 211 6 212 7 5 5 1622 -2 1743 -7z"/>
<path d="M7328 9023 c-9 -10 -21 -29 -28 -42 -14 -27 -18 -157 -6 -211 4 -19
9 -45 11 -57 1 -11 8 -36 14 -55 6 -18 22 -67 35 -108 13 -41 30 -88 37 -105
7 -16 13 -32 14 -35 13 -36 58 -131 85 -179 32 -57 57 -80 116 -107 52 -24 57
-24 80 -9 14 9 29 28 35 43 21 55 -1 192 -46 289 -8 17 -15 34 -15 38 0 4 -6
21 -14 38 -8 18 -29 73 -46 122 -46 136 -79 193 -157 274 -24 24 -43 48 -43
52 0 4 -6 12 -13 16 -7 4 -20 18 -29 31 -14 21 -16 21 -30 5z"/>
<path d="M3373 8889 c-57 -16 -100 -72 -222 -289 -17 -30 -37 -66 -43 -80 -7
-14 -18 -31 -25 -38 -7 -7 -13 -17 -13 -21 0 -8 -64 -121 -230 -406 -107 -183
-179 -321 -185 -356 -3 -13 -7 -33 -9 -44 -5 -20 -147 -373 -158 -390 -11 -19
-21 -80 -19 -115 6 -105 90 -258 204 -374 32 -31 55 -67 62 -96 1 -5 11 -28
66 -148 16 -35 29 -66 29 -71 0 -4 15 -39 34 -77 18 -38 46 -96 61 -129 66
-144 89 -192 105 -215 9 -14 27 -50 39 -80 13 -30 41 -93 62 -138 22 -46 39
-86 39 -88 0 -2 23 -52 51 -111 68 -143 119 -254 119 -258 0 -1 21 -47 46
-101 25 -55 53 -115 61 -134 9 -19 36 -78 61 -130 26 -52 47 -97 47 -100 2 -6
37 -82 105 -225 29 -60 63 -135 77 -165 14 -30 45 -97 69 -148 24 -52 44 -96
44 -98 0 -2 18 -40 40 -85 22 -45 40 -88 40 -96 0 -7 5 -13 10 -13 6 0 10 -4
10 -10 0 -5 16 -45 36 -87 20 -43 54 -121 75 -173 85 -202 155 -310 269 -413
8 -7 40 -25 70 -39 l55 -27 11 37 c15 52 10 216 -10 287 -9 33 -18 67 -21 76
-2 9 -8 25 -14 35 -26 47 -121 254 -121 263 0 6 -4 11 -10 11 -5 0 -10 8 -10
18 0 10 -3 22 -7 26 -5 4 -8 11 -9 14 0 4 -26 61 -58 127 -32 66 -71 147 -86
180 -61 133 -114 243 -249 518 -78 159 -141 293 -141 298 0 5 -5 9 -12 9 -6 0
-9 2 -6 6 3 3 -8 33 -25 67 -17 34 -31 64 -32 67 0 3 -18 41 -39 85 -63 132
-112 237 -136 290 -12 28 -39 86 -60 130 -21 44 -50 107 -65 140 -15 33 -54
114 -85 180 -158 329 -228 480 -248 530 -8 22 -19 46 -25 52 -13 17 2 21 93
28 156 12 186 14 235 20 28 3 66 8 85 10 19 3 64 7 100 9 36 3 88 8 115 11 95
10 140 15 210 21 114 10 154 13 265 19 58 3 137 8 175 12 75 7 2022 12 2042 5
7 -2 10 -17 8 -35 -2 -18 -6 -59 -10 -92 -6 -63 -12 -114 -21 -180 -15 -115
-19 -138 -27 -180 -3 -16 -9 -48 -12 -70 -9 -62 -15 -97 -22 -130 -3 -16 -7
-37 -8 -45 -2 -13 -9 -58 -20 -120 -1 -8 -6 -35 -10 -60 -4 -25 -9 -54 -11
-65 -2 -11 -6 -33 -9 -50 -3 -16 -9 -48 -15 -70 -30 -124 -73 -303 -77 -325
-8 -43 -11 -55 -13 -55 -1 0 -3 -8 -5 -19 -2 -10 -9 -39 -15 -65 -6 -25 -12
-55 -14 -66 -2 -11 -9 -40 -16 -65 -11 -42 -14 -53 -25 -105 -11 -50 -16 -66
-45 -170 -17 -60 -32 -117 -34 -125 -4 -13 -73 -264 -107 -385 -6 -22 -14 -47
-17 -55 -6 -19 -9 -29 -15 -60 -3 -14 -10 -45 -17 -70 -7 -25 -13 -49 -14 -55
-1 -5 -5 -19 -9 -30 -3 -11 -8 -31 -11 -45 -3 -14 -10 -43 -16 -65 -6 -22 -13
-49 -15 -60 -3 -11 -8 -31 -12 -45 -10 -39 -7 -220 4 -263 15 -51 64 -147 76
-147 28 0 152 208 173 289 2 9 18 68 34 131 17 63 33 126 36 140 3 14 12 50
20 80 9 30 19 71 24 90 15 63 51 194 56 202 3 5 7 19 10 33 2 13 32 125 65
247 33 123 63 232 65 243 2 11 6 31 9 45 4 14 8 35 11 47 2 12 8 33 13 45 5
13 9 26 9 31 0 4 3 20 6 35 4 15 8 36 10 47 2 11 14 61 26 110 12 50 23 99 26
110 2 11 7 34 11 50 4 17 8 35 9 40 1 6 3 13 4 18 3 8 3 8 15 62 5 22 9 42 10
45 2 8 25 113 30 140 14 71 22 115 30 170 2 14 8 50 14 80 13 69 21 116 27
155 2 17 11 66 19 110 8 44 17 103 20 130 4 28 8 61 11 75 2 14 7 50 10 80 6
62 9 88 20 180 4 36 8 76 9 89 l1 25 339 2 c543 5 789 15 828 35 9 6 17 7 17
4 0 -13 236 88 250 107 3 4 30 18 60 32 80 37 106 64 162 166 30 54 24 84 -25
117 -49 34 -156 67 -252 78 -16 2 -52 7 -80 11 -27 4 -347 8 -710 8 l-659 1
-19 50 c-10 28 -27 68 -37 90 -10 22 -25 56 -33 76 -9 19 -30 65 -46 102 -17
37 -51 120 -77 185 -25 64 -52 131 -60 148 -7 17 -29 77 -48 132 -40 118 -86
219 -127 278 -16 24 -29 46 -29 51 -1 4 -10 19 -21 32 -20 24 -20 24 -39 5
-38 -39 -59 -130 -56 -249 2 -60 9 -123 16 -140 6 -16 14 -40 16 -52 2 -12 9
-35 16 -50 6 -16 12 -32 14 -38 1 -5 28 -77 59 -159 31 -82 58 -154 60 -160 1
-6 10 -29 20 -51 11 -22 19 -42 20 -45 0 -3 8 -22 18 -42 9 -21 24 -54 32 -73
8 -19 22 -51 32 -71 13 -30 14 -37 3 -44 -8 -5 -18 -6 -23 -3 -13 8 -107 9
-107 2 0 -4 -17 -3 -37 0 -21 4 -55 4 -76 0 -21 -3 -39 -3 -42 0 -3 6 -51 6
-65 1 -3 -1 -9 -2 -14 -1 -31 6 -76 6 -76 1 0 -4 -20 -4 -45 0 -25 4 -45 4
-45 1 0 -3 -17 -5 -37 -4 -21 1 -38 2 -38 3 0 6 -58 4 -61 -2 -3 -5 -9 -6 -14
-3 -14 9 -80 12 -80 5 0 -4 -19 -4 -42 -1 -24 4 -60 4 -81 0 -21 -3 -39 -3
-42 0 -3 6 -51 6 -65 1 -3 -1 -9 -2 -14 -1 -28 6 -76 7 -76 2 0 -8 -79 -6 -86
2 -3 3 -17 2 -30 -3 -13 -5 -24 -6 -24 -2 0 4 -25 7 -55 7 -30 0 -55 -2 -55
-5 0 -7 -69 -4 -76 3 -3 3 -16 2 -29 -3 -13 -5 -25 -6 -29 -3 -5 5 -62 8 -76
3 -3 0 -66 -3 -140 -5 -74 -2 -171 -6 -215 -9 -203 -15 -245 -17 -315 -21
-185 -10 -276 -16 -290 -20 -8 -2 -44 -7 -80 -11 -36 -3 -76 -8 -90 -9 -14 -2
-52 -6 -85 -10 -71 -9 -88 -11 -177 -19 -37 -4 -77 -9 -90 -11 -13 -3 -48 -7
-78 -10 -30 -3 -75 -7 -100 -10 -25 -3 -75 -7 -112 -10 -87 -7 -149 -14 -170
-21 -10 -3 -18 -2 -18 2 0 16 42 94 51 94 5 0 9 4 9 10 0 22 295 532 312 538
4 2 8 9 8 15 0 7 14 32 30 57 17 25 35 52 40 60 5 8 21 32 35 53 14 21 25 40
25 42 0 3 17 31 37 62 60 93 221 400 252 482 48 128 -41 236 -166 200z"/>
</g>
</svg>
